<mxfile host="app.diagrams.net" modified="2024-05-17T06:54:52.240Z" agent="Mozilla/5.0 (Windows NT 10.0; Win64; x64) AppleWebKit/537.36 (KHTML, like Gecko) Chrome/124.0.0.0 Safari/537.36 Edg/124.0.0.0" etag="xM7PsjrgwAzSjrBHUmvH" version="24.4.3" type="device">
  <diagram name="Page-1" id="3pw00_N_Ryuk0Ga8qiZI">
    <mxGraphModel dx="1793" dy="835" grid="1" gridSize="10" guides="1" tooltips="1" connect="1" arrows="1" fold="1" page="1" pageScale="1" pageWidth="1169" pageHeight="827" math="0" shadow="0">
      <root>
        <mxCell id="0" />
        <mxCell id="1" parent="0" />
        <mxCell id="RRUcxKm59NHoPgEMislD-31" value="" style="rounded=0;whiteSpace=wrap;html=1;rotation=90;movable=0;resizable=0;rotatable=0;deletable=0;editable=0;locked=1;connectable=0;" vertex="1" parent="1">
          <mxGeometry x="36" y="195" width="770" height="460" as="geometry" />
        </mxCell>
        <mxCell id="RRUcxKm59NHoPgEMislD-32" value="Pelanggan" style="shape=umlActor;verticalLabelPosition=bottom;verticalAlign=top;html=1;outlineConnect=0;movable=1;resizable=1;rotatable=1;deletable=1;editable=1;locked=0;connectable=1;" vertex="1" parent="1">
          <mxGeometry x="40" y="165" width="110" height="180" as="geometry" />
        </mxCell>
        <mxCell id="RRUcxKm59NHoPgEMislD-65" style="edgeStyle=orthogonalEdgeStyle;rounded=0;orthogonalLoop=1;jettySize=auto;html=1;exitX=1;exitY=0.3333333333333333;exitDx=0;exitDy=0;exitPerimeter=0;" edge="1" parent="1" source="RRUcxKm59NHoPgEMislD-33" target="RRUcxKm59NHoPgEMislD-64">
          <mxGeometry relative="1" as="geometry" />
        </mxCell>
        <mxCell id="RRUcxKm59NHoPgEMislD-33" value="Manajer Toko" style="shape=umlActor;verticalLabelPosition=bottom;verticalAlign=top;html=1;outlineConnect=0;movable=1;resizable=1;rotatable=1;deletable=1;editable=1;locked=0;connectable=1;" vertex="1" parent="1">
          <mxGeometry x="40" y="485" width="110" height="180" as="geometry" />
        </mxCell>
        <mxCell id="RRUcxKm59NHoPgEMislD-34" value="&lt;font style=&quot;font-size: 14px;&quot;&gt;Browse Catalog&lt;/font&gt;" style="ellipse;whiteSpace=wrap;html=1;movable=1;resizable=1;rotatable=1;deletable=1;editable=1;locked=0;connectable=1;" vertex="1" parent="1">
          <mxGeometry x="250" y="75" width="120" height="80" as="geometry" />
        </mxCell>
        <mxCell id="RRUcxKm59NHoPgEMislD-35" value="&lt;span style=&quot;font-size: 14px;&quot;&gt;Make Order Request&lt;/span&gt;" style="ellipse;whiteSpace=wrap;html=1;movable=1;resizable=1;rotatable=1;deletable=1;editable=1;locked=0;connectable=1;" vertex="1" parent="1">
          <mxGeometry x="250" y="185" width="120" height="80" as="geometry" />
        </mxCell>
        <mxCell id="RRUcxKm59NHoPgEMislD-36" value="&lt;font style=&quot;font-size: 14px;&quot;&gt;View Order Status&lt;/font&gt;" style="ellipse;whiteSpace=wrap;html=1;movable=1;resizable=1;rotatable=1;deletable=1;editable=1;locked=0;connectable=1;" vertex="1" parent="1">
          <mxGeometry x="250" y="305" width="120" height="80" as="geometry" />
        </mxCell>
        <mxCell id="RRUcxKm59NHoPgEMislD-37" value="&lt;font size=&quot;3&quot;&gt;Login&lt;/font&gt;" style="ellipse;whiteSpace=wrap;html=1;movable=1;resizable=1;rotatable=1;deletable=1;editable=1;locked=0;connectable=1;" vertex="1" parent="1">
          <mxGeometry x="690" y="245" width="120" height="80" as="geometry" />
        </mxCell>
        <mxCell id="RRUcxKm59NHoPgEMislD-38" value="" style="html=1;verticalAlign=bottom;endArrow=open;dashed=1;endSize=8;curved=0;rounded=0;movable=1;resizable=1;rotatable=1;deletable=1;editable=1;locked=0;connectable=1;entryX=0;entryY=0.5;entryDx=0;entryDy=0;exitX=1;exitY=0.5;exitDx=0;exitDy=0;" edge="1" parent="1" source="RRUcxKm59NHoPgEMislD-36" target="RRUcxKm59NHoPgEMislD-37">
          <mxGeometry relative="1" as="geometry">
            <mxPoint x="430" y="335" as="sourcePoint" />
            <mxPoint x="470" y="425" as="targetPoint" />
          </mxGeometry>
        </mxCell>
        <mxCell id="RRUcxKm59NHoPgEMislD-39" value="&amp;lt;&amp;lt;Include&amp;gt;&amp;gt;" style="edgeLabel;html=1;align=center;verticalAlign=middle;resizable=1;points=[];rotation=-15;movable=1;rotatable=1;deletable=1;editable=1;locked=0;connectable=1;" vertex="1" connectable="0" parent="RRUcxKm59NHoPgEMislD-38">
          <mxGeometry x="-0.1024" y="2" relative="1" as="geometry">
            <mxPoint x="-13" y="14" as="offset" />
          </mxGeometry>
        </mxCell>
        <mxCell id="RRUcxKm59NHoPgEMislD-40" value="" style="html=1;verticalAlign=bottom;endArrow=open;dashed=1;endSize=8;curved=0;rounded=0;entryX=0;entryY=0.5;entryDx=0;entryDy=0;movable=1;resizable=1;rotatable=1;deletable=1;editable=1;locked=0;connectable=1;" edge="1" parent="1" source="RRUcxKm59NHoPgEMislD-35" target="RRUcxKm59NHoPgEMislD-37">
          <mxGeometry relative="1" as="geometry">
            <mxPoint x="400" y="326" as="sourcePoint" />
            <mxPoint x="471" y="404" as="targetPoint" />
          </mxGeometry>
        </mxCell>
        <mxCell id="RRUcxKm59NHoPgEMislD-41" value="&amp;lt;&amp;lt;Include&amp;gt;&amp;gt;" style="edgeLabel;html=1;align=center;verticalAlign=middle;resizable=1;points=[];rotation=5;movable=1;rotatable=1;deletable=1;editable=1;locked=0;connectable=1;" vertex="1" connectable="0" parent="RRUcxKm59NHoPgEMislD-40">
          <mxGeometry x="-0.1024" y="2" relative="1" as="geometry">
            <mxPoint x="-34" y="7" as="offset" />
          </mxGeometry>
        </mxCell>
        <mxCell id="RRUcxKm59NHoPgEMislD-42" value="" style="html=1;verticalAlign=bottom;endArrow=open;dashed=1;endSize=8;curved=0;rounded=0;exitX=0.976;exitY=0.601;exitDx=0;exitDy=0;exitPerimeter=0;movable=1;resizable=1;rotatable=1;deletable=1;editable=1;locked=0;connectable=1;entryX=0;entryY=0.5;entryDx=0;entryDy=0;" edge="1" parent="1" source="RRUcxKm59NHoPgEMislD-34" target="RRUcxKm59NHoPgEMislD-37">
          <mxGeometry relative="1" as="geometry">
            <mxPoint x="410" y="205" as="sourcePoint" />
            <mxPoint x="500" y="215" as="targetPoint" />
          </mxGeometry>
        </mxCell>
        <mxCell id="RRUcxKm59NHoPgEMislD-44" value="&lt;span style=&quot;font-size: 14px;&quot;&gt;Updating Catalog&lt;/span&gt;" style="ellipse;whiteSpace=wrap;html=1;movable=1;resizable=1;rotatable=1;deletable=1;editable=1;locked=0;connectable=1;" vertex="1" parent="1">
          <mxGeometry x="250" y="680" width="120" height="80" as="geometry" />
        </mxCell>
        <mxCell id="RRUcxKm59NHoPgEMislD-45" value="" style="html=1;verticalAlign=bottom;endArrow=open;dashed=1;endSize=8;curved=0;rounded=0;exitX=0.973;exitY=0.39;exitDx=0;exitDy=0;movable=1;resizable=1;rotatable=1;deletable=1;editable=1;locked=0;connectable=1;entryX=0;entryY=0.5;entryDx=0;entryDy=0;exitPerimeter=0;" edge="1" parent="1" source="RRUcxKm59NHoPgEMislD-44" target="RRUcxKm59NHoPgEMislD-37">
          <mxGeometry relative="1" as="geometry">
            <mxPoint x="580" y="225" as="sourcePoint" />
            <mxPoint x="464" y="505" as="targetPoint" />
          </mxGeometry>
        </mxCell>
        <mxCell id="RRUcxKm59NHoPgEMislD-46" value="&amp;lt;&amp;lt;Include&amp;gt;&amp;gt;" style="edgeLabel;html=1;align=center;verticalAlign=middle;resizable=1;points=[];rotation=-45;movable=1;rotatable=1;deletable=1;editable=1;locked=0;connectable=1;" vertex="1" connectable="0" parent="1">
          <mxGeometry x="575" y="445" width="10" as="geometry" />
        </mxCell>
        <mxCell id="RRUcxKm59NHoPgEMislD-47" value="&amp;lt;&amp;lt;Include&amp;gt;&amp;gt;" style="edgeLabel;html=1;align=center;verticalAlign=middle;resizable=1;points=[];rotation=20;movable=1;rotatable=1;deletable=1;editable=1;locked=0;connectable=1;" vertex="1" connectable="0" parent="1">
          <mxGeometry x="465.995431254922" y="186.00315538368608" as="geometry" />
        </mxCell>
        <mxCell id="RRUcxKm59NHoPgEMislD-49" value="" style="endArrow=classic;html=1;rounded=0;entryX=0;entryY=0.5;entryDx=0;entryDy=0;" edge="1" parent="1" target="RRUcxKm59NHoPgEMislD-44">
          <mxGeometry width="50" height="50" relative="1" as="geometry">
            <mxPoint x="150" y="545" as="sourcePoint" />
            <mxPoint x="360" y="485" as="targetPoint" />
          </mxGeometry>
        </mxCell>
        <mxCell id="RRUcxKm59NHoPgEMislD-50" value="" style="endArrow=classic;html=1;rounded=0;exitX=1;exitY=0.3333333333333333;exitDx=0;exitDy=0;exitPerimeter=0;entryX=0;entryY=0.5;entryDx=0;entryDy=0;" edge="1" parent="1" source="RRUcxKm59NHoPgEMislD-32" target="RRUcxKm59NHoPgEMislD-36">
          <mxGeometry width="50" height="50" relative="1" as="geometry">
            <mxPoint x="310" y="365" as="sourcePoint" />
            <mxPoint x="360" y="315" as="targetPoint" />
          </mxGeometry>
        </mxCell>
        <mxCell id="RRUcxKm59NHoPgEMislD-51" value="" style="endArrow=classic;html=1;rounded=0;exitX=1;exitY=0.3333333333333333;exitDx=0;exitDy=0;exitPerimeter=0;entryX=0;entryY=0.5;entryDx=0;entryDy=0;" edge="1" parent="1" source="RRUcxKm59NHoPgEMislD-32" target="RRUcxKm59NHoPgEMislD-35">
          <mxGeometry width="50" height="50" relative="1" as="geometry">
            <mxPoint x="310" y="365" as="sourcePoint" />
            <mxPoint x="360" y="315" as="targetPoint" />
          </mxGeometry>
        </mxCell>
        <mxCell id="RRUcxKm59NHoPgEMislD-52" value="" style="endArrow=classic;html=1;rounded=0;exitX=1;exitY=0.3333333333333333;exitDx=0;exitDy=0;exitPerimeter=0;entryX=0;entryY=0.5;entryDx=0;entryDy=0;" edge="1" parent="1" source="RRUcxKm59NHoPgEMislD-32" target="RRUcxKm59NHoPgEMislD-34">
          <mxGeometry width="50" height="50" relative="1" as="geometry">
            <mxPoint x="310" y="365" as="sourcePoint" />
            <mxPoint x="360" y="315" as="targetPoint" />
          </mxGeometry>
        </mxCell>
        <mxCell id="RRUcxKm59NHoPgEMislD-53" value="&lt;font style=&quot;font-size: 14px;&quot;&gt;Payment&lt;/font&gt;" style="ellipse;whiteSpace=wrap;html=1;movable=1;resizable=1;rotatable=1;deletable=1;editable=1;locked=0;connectable=1;" vertex="1" parent="1">
          <mxGeometry x="250" y="405" width="120" height="80" as="geometry" />
        </mxCell>
        <mxCell id="RRUcxKm59NHoPgEMislD-54" value="" style="endArrow=classic;html=1;rounded=0;exitX=1;exitY=0.3333333333333333;exitDx=0;exitDy=0;exitPerimeter=0;entryX=0;entryY=0.5;entryDx=0;entryDy=0;" edge="1" parent="1" source="RRUcxKm59NHoPgEMislD-32" target="RRUcxKm59NHoPgEMislD-53">
          <mxGeometry width="50" height="50" relative="1" as="geometry">
            <mxPoint x="340" y="425" as="sourcePoint" />
            <mxPoint x="390" y="375" as="targetPoint" />
          </mxGeometry>
        </mxCell>
        <mxCell id="RRUcxKm59NHoPgEMislD-55" value="" style="html=1;verticalAlign=bottom;endArrow=open;dashed=1;endSize=8;curved=0;rounded=0;movable=1;resizable=1;rotatable=1;deletable=1;editable=1;locked=0;connectable=1;entryX=0;entryY=0.5;entryDx=0;entryDy=0;" edge="1" parent="1" source="RRUcxKm59NHoPgEMislD-53" target="RRUcxKm59NHoPgEMislD-37">
          <mxGeometry relative="1" as="geometry">
            <mxPoint x="400" y="425" as="sourcePoint" />
            <mxPoint x="690" y="335" as="targetPoint" />
          </mxGeometry>
        </mxCell>
        <mxCell id="RRUcxKm59NHoPgEMislD-56" value="&amp;lt;&amp;lt;Include&amp;gt;&amp;gt;" style="edgeLabel;html=1;align=center;verticalAlign=middle;resizable=1;points=[];rotation=-20;movable=1;rotatable=1;deletable=1;editable=1;locked=0;connectable=1;" vertex="1" connectable="0" parent="RRUcxKm59NHoPgEMislD-55">
          <mxGeometry x="-0.1024" y="2" relative="1" as="geometry">
            <mxPoint x="-13" y="17" as="offset" />
          </mxGeometry>
        </mxCell>
        <mxCell id="RRUcxKm59NHoPgEMislD-64" value="&lt;span style=&quot;font-size: 14px;&quot;&gt;Dashboard&lt;/span&gt;" style="ellipse;whiteSpace=wrap;html=1;movable=1;resizable=1;rotatable=1;deletable=1;editable=1;locked=0;connectable=1;" vertex="1" parent="1">
          <mxGeometry x="250" y="520" width="120" height="80" as="geometry" />
        </mxCell>
        <mxCell id="RRUcxKm59NHoPgEMislD-67" value="" style="html=1;verticalAlign=bottom;endArrow=open;dashed=1;endSize=8;curved=0;rounded=0;exitX=1;exitY=0.5;exitDx=0;exitDy=0;movable=1;resizable=1;rotatable=1;deletable=1;editable=1;locked=0;connectable=1;entryX=0;entryY=0.5;entryDx=0;entryDy=0;" edge="1" parent="1" source="RRUcxKm59NHoPgEMislD-64" target="RRUcxKm59NHoPgEMislD-37">
          <mxGeometry relative="1" as="geometry">
            <mxPoint x="377" y="681" as="sourcePoint" />
            <mxPoint x="700" y="295" as="targetPoint" />
          </mxGeometry>
        </mxCell>
        <mxCell id="RRUcxKm59NHoPgEMislD-68" value="&amp;lt;&amp;lt;Include&amp;gt;&amp;gt;" style="edgeLabel;html=1;align=center;verticalAlign=middle;resizable=1;points=[];rotation=-45;movable=1;rotatable=1;deletable=1;editable=1;locked=0;connectable=1;" vertex="1" connectable="0" parent="1">
          <mxGeometry x="520" y="440" width="10" as="geometry" />
        </mxCell>
      </root>
    </mxGraphModel>
  </diagram>
</mxfile>
